HIERARCHY
ROOT reference
{
  OFFSET 0 0 0
  CHANNELS 6 Xposition Yposition Zposition Zrotation Xrotation Yrotation
  JOINT Hips
  {
    OFFSET -10.5182 85.0116 125.353
    CHANNELS 6 Xposition Yposition Zposition Zrotation Xrotation Yrotation
    JOINT Spine
    {
      OFFSET 0 7.59534 0
      CHANNELS 6 Xposition Yposition Zposition Zrotation Xrotation Yrotation
      JOINT Spine1
      {
        OFFSET 0 23.5015 0
        CHANNELS 6 Xposition Yposition Zposition Zrotation Xrotation Yrotation
        JOINT Neck
        {
          OFFSET 0 23.405 2.12773
          CHANNELS 6 Xposition Yposition Zposition Zrotation Xrotation Yrotation
          JOINT Head
          {
            OFFSET 0 12.9677 -1.85252
            CHANNELS 6 Xposition Yposition Zposition Zrotation Xrotation Yrotation
            End Site
            {
              OFFSET 0 23.1565 0
            }
          }
        }
        JOINT LeftShoulder
        {
          OFFSET 3.62206 22.4732 -0.132728
          CHANNELS 6 Xposition Yposition Zposition Zrotation Xrotation Yrotation
          JOINT LeftArm
          {
            OFFSET 8.17784 0 0
            CHANNELS 6 Xposition Yposition Zposition Zrotation Xrotation Yrotation
            JOINT LeftForeArm
            {
              OFFSET 30.104 0 0
              CHANNELS 6 Xposition Yposition Zposition Zrotation Xrotation Yrotation
              JOINT LeftHand
              {
                OFFSET 24.4664 0 0
                CHANNELS 6 Xposition Yposition Zposition Zrotation Xrotation Yrotation
                End Site
                {
                  OFFSET 13.8939 0 0
                }
              }
            }
          }
        }
        JOINT RightShoulder
        {
          OFFSET -3.6336 22.4732 -0.132728
          CHANNELS 6 Xposition Yposition Zposition Zrotation Xrotation Yrotation
          JOINT RightArm
          {
            OFFSET -8.17784 0 0
            CHANNELS 6 Xposition Yposition Zposition Zrotation Xrotation Yrotation
            JOINT RightForeArm
            {
              OFFSET -30.104 0 0
              CHANNELS 6 Xposition Yposition Zposition Zrotation Xrotation Yrotation
              JOINT RightHand
              {
                OFFSET -24.4664 0 0
                CHANNELS 6 Xposition Yposition Zposition Zrotation Xrotation Yrotation
                End Site
                {
                  OFFSET -13.8939 0 0
                }
              }
            }
          }
        }
      }
    }
    JOINT LeftUpLeg
    {
      OFFSET 9.26261 0 0
      CHANNELS 6 Xposition Yposition Zposition Zrotation Xrotation Yrotation
      JOINT LeftLeg
      {
        OFFSET 0 -35.4897 0
        CHANNELS 6 Xposition Yposition Zposition Zrotation Xrotation Yrotation
        JOINT LeftFoot
        {
          OFFSET 0 -38.2023 0
          CHANNELS 6 Xposition Yposition Zposition Zrotation Xrotation Yrotation
          JOINT LeftToeBase
          {
            OFFSET 0 -6.0207 13.8939
            CHANNELS 6 Xposition Yposition Zposition Zrotation Xrotation Yrotation
            End Site
            {
              OFFSET 0 0 3.70504
            }
          }
        }
      }
    }
    JOINT RightUpLeg
    {
      OFFSET -9.26261 0 0
      CHANNELS 6 Xposition Yposition Zposition Zrotation Xrotation Yrotation
      JOINT RightLeg
      {
        OFFSET 0 -35.4897 0
        CHANNELS 6 Xposition Yposition Zposition Zrotation Xrotation Yrotation
        JOINT RightFoot
        {
          OFFSET 0 -38.2023 0
          CHANNELS 6 Xposition Yposition Zposition Zrotation Xrotation Yrotation
          JOINT RightToeBase
          {
            OFFSET 0 -6.0207 13.8939
            CHANNELS 6 Xposition Yposition Zposition Zrotation Xrotation Yrotation
            End Site
            {
              OFFSET 0 0 3.70504
            }
          }
        }
      }
    }
  }
}
MOTION
Frames:	6
Frame Time:	0.004
0 0 0 0 0 -0 -17.8324 78.0323 -136.667 -1.07104 -3.14141 -11.3016 0 7.59534 1.42109e-014 -0.329874 -2.69924 -1.40179 0 23.5015 0 -2.52574 10.6432 -1.15871 0 23.405 2.12773 -12.6107 42.622 -0.657954 -1.42109e-014 12.9677 -1.85252 -10.0591 21.3997 -3.65635 3.62206 22.4732 -0.132728 -15.1548 14.7851 4.2361 8.17784 -7.10543e-015 0 -18.792 57.0286 -32.8027 30.104 1.42109e-014 0 10.8509 -19.5177 -22.2721 24.4664 1.42109e-014 0 -10.2 -16.7797 -8.26109 -3.6336 22.4732 -0.132728 3.55696 34.2854 29.2588 -8.17784 1.42109e-014 0 30.6114 31.5108 19.9464 -30.104 -2.84217e-014 0 -6.54115 -10.7089 20.8016 -24.4664 1.42109e-014 -1.42109e-014 11.3373 -8.99404 5.42186 9.26261 1.42109e-014 -1.42109e-014 -2.93321 7.30771 4.88419 0 -35.4897 2.84217e-014 -4.19614 -0.601083 2.80064 0 -38.2023 0 2.83882 -5.27651 8.41718 0 -6.0207 13.8939 2.23633e-016 0 -0 -9.26261 0 1.42109e-014 -4.36349 -21.7395 -4.61773 -1.42109e-014 -35.4897 0 -3.8929 61.3732 -2.1897 0 -38.2023 0 1.10077 9.1701 14.1752 0 -6.0207 13.8939 0 0 -7.95139e-016 
0 0 0 0 0 -0 -17.8163 78.0544 -136.362 -1.0991 -3.15474 -11.2377 0 7.59534 1.42109e-014 -0.330522 -2.69743 -1.4798 0 23.5015 0 -2.49496 10.6159 -1.24019 -7.10543e-015 23.405 2.12773 -12.5605 42.6721 -0.692043 0 12.9677 -1.85252 -9.98824 21.4398 -3.68486 3.62206 22.4732 -0.132728 -15.1044 14.7964 4.21469 8.17784 -7.10543e-015 0 -18.6028 57.0746 -32.9977 30.104 -1.42109e-014 0 11.2082 -19.5629 -22.1229 24.4664 0 -7.10543e-015 -10.1648 -16.7763 -8.24202 -3.6336 22.4732 -0.132728 3.61762 34.2886 29.1907 -8.17784 0 -2.84217e-014 30.6945 31.3803 19.8385 -30.104 0 0 -6.39381 -10.7264 20.7179 -24.4664 0 1.42109e-014 11.2293 -9.04865 5.41856 9.26261 1.42109e-014 2.84217e-014 -2.97034 7.52919 5.04836 7.10543e-015 -35.4897 0 -4.20052 -0.588704 2.68003 0 -38.2023 2.84217e-014 2.88963 -5.29266 8.39706 0 -6.0207 13.8939 1.73937e-016 0 -0 -9.26261 0 0 -4.19874 -22.0667 -4.64802 -1.42109e-014 -35.4897 1.42109e-014 -3.80555 60.9284 -2.19307 0 -38.2023 0 1.8272 8.9133 13.9981 1.42109e-014 -6.0207 13.8939 -8.82781e-032 3.18055e-015 1.59028e-015 
0 0 0 0 0 -0 -17.8015 78.0702 -136.04 -1.14574 -3.1986 -11.1238 0 7.59534 0 -0.335741 -2.67824 -1.58217 0 23.5015 0 -2.41107 10.6329 -1.34995 0 23.405 2.12773 -12.566 42.6878 -0.736648 0 12.9677 -1.85252 -9.89329 21.5022 -3.73387 3.62206 22.4732 -0.132728 -15.0833 14.796 4.20798 8.17784 7.10543e-015 -2.84217e-014 -18.82 56.5505 -32.7693 30.104 -1.42109e-014 0 11.0778 -19.3215 -22.3927 24.4664 0 0 -9.82261 -16.5835 -7.87862 -3.6336 22.4732 -0.132728 3.57332 34.273 29.185 -8.17784 -1.42109e-014 -2.84217e-014 30.8814 31.1517 19.677 -30.104 0 0 -6.38075 -10.5803 20.5671 -24.4664 -1.42109e-014 0 11.5872 -8.87422 5.63331 9.26261 0 0 -2.99842 7.83466 4.98557 0 -35.4897 0 -4.19117 -0.662617 2.71939 3.55271e-015 -38.2023 0 2.94893 -5.30707 8.39068 0 -6.0207 13.8939 1.70209e-015 1.98785e-016 -7.95139e-016 -9.26261 0 -1.42109e-014 -4.03547 -22.4125 -4.58524 0 -35.4897 0 -3.44479 60.5474 -2.536 0 -38.2023 1.42109e-014 1.97732 8.85335 13.6571 0 -6.0207 13.8939 1.59028e-015 3.18055e-015 3.18055e-015 
0 0 0 0 0 -0 -17.7834 78.0858 -135.727 -1.15756 -3.24836 -11.0366 0 7.59534 1.42109e-014 -0.386999 -2.67242 -1.65214 7.10543e-015 23.5015 1.42109e-014 -2.31607 10.6732 -1.42674 0 23.405 2.12773 -12.4387 42.725 -0.848903 -1.42109e-014 12.9677 -1.85252 -9.9089 21.5334 -3.81714 3.62206 22.4732 -0.132728 -15.0511 14.8295 4.13375 8.17784 7.10543e-015 2.84217e-014 -18.6055 56.5947 -32.9972 30.104 -1.42109e-014 0 11.4604 -19.4338 -22.224 24.4664 0 -7.10543e-015 -9.91765 -16.6302 -7.93466 -3.6336 22.4732 -0.132728 3.58715 34.2717 29.1016 -8.17784 0 0 30.9681 31.041 19.6 -30.104 0 0 -6.44487 -10.4829 20.3666 -24.4664 -7.10543e-015 0 11.7729 -8.76134 5.69064 9.26261 1.42109e-014 1.42109e-014 -3.06958 8.13619 4.8091 0 -35.4897 2.84217e-014 -4.17915 -0.756314 2.92519 -3.55271e-015 -38.2023 2.84217e-014 3.05732 -5.31462 8.35491 0 -6.0207 13.8939 -1.43498e-015 9.93923e-017 7.95139e-016 -9.26261 1.42109e-014 0 -3.89911 -22.6889 -4.6673 0 -35.4897 0 -3.50775 60.078 -2.3026 0 -38.2023 2.84217e-014 2.10873 8.59485 13.6229 0 -6.0207 13.8939 -1.59028e-015 0 3.18055e-015 
0 0 0 0 0 -0 -17.7793 78.1086 -135.422 -1.20799 -3.19264 -10.9794 7.10543e-015 7.59534 0 -0.381312 -2.74965 -1.71287 0 23.5015 1.42109e-014 -2.26584 10.726 -1.49097 -7.10543e-015 23.405 2.12773 -12.2691 42.6381 -0.927669 -1.42109e-014 12.9677 -1.85252 -9.86106 21.6644 -3.8301 3.62206 22.4732 -0.132728 -14.9967 14.8607 4.1412 8.17784 1.42109e-014 0 -18.8069 56.0063 -32.822 30.104 -2.84217e-014 -7.10543e-015 11.3432 -19.182 -22.5042 24.4664 0 0 -9.62083 -16.4202 -7.54751 -3.6336 22.4732 -0.132728 3.71116 34.2118 28.9625 -8.17784 0 -2.84217e-014 31.0424 31.0149 19.4498 -30.104 0 2.84217e-014 -6.35936 -10.5262 20.3765 -24.4664 0 0 11.5123 -8.85218 5.49319 9.26261 0 -1.42109e-014 -3.06141 8.32219 4.84264 0 -35.4897 -2.84217e-014 -4.18333 -0.800857 2.89982 -3.55271e-015 -38.2023 2.84217e-014 2.98321 -5.28816 8.37144 0 -6.0207 13.8939 4.19311e-016 0 7.95139e-016 -9.26261 -1.42109e-014 -1.42109e-014 -3.68515 -23.0639 -4.53626 0 -35.4897 0 -3.03542 59.5353 -2.81916 0 -38.2023 0 2.15596 8.49003 13.4329 0 -6.0207 13.8939 -1.59028e-015 -3.18055e-015 1.59028e-015 
0 0 0 0 0 -0 -17.7675 78.1205 -135.113 -1.23535 -3.21009 -10.8997 0 7.59534 -1.42109e-014 -0.416083 -2.78596 -1.77761 0 23.5015 -1.42109e-014 -2.14632 10.7687 -1.56516 7.10543e-015 23.405 2.12773 -12.2934 42.695 -0.979096 0 12.9677 -1.85252 -9.72346 21.7001 -3.90207 3.62206 22.4732 -0.132728 -14.9927 14.8652 4.05647 8.17784 1.42109e-014 0 -18.6374 56.067 -32.9912 30.104 1.42109e-014 -7.10543e-015 11.6511 -19.3156 -22.352 24.4664 0 0 -9.37919 -16.5358 -7.44101 -3.6336 22.4732 -0.132728 3.68259 34.2386 28.9112 -8.17784 -1.42109e-014 0 31.1281 30.8605 19.3644 -30.104 0 0 -6.34442 -10.4862 20.2471 -24.4664 0 0 11.7674 -8.79109 5.67582 9.26261 -1.42109e-014 0 -3.10884 8.58635 4.83055 0 -35.4897 2.84217e-014 -4.17263 -0.840915 2.97787 0 -38.2023 2.84217e-014 3.05114 -5.32504 8.33637 1.77636e-015 -6.0207 13.8939 -5.38116e-016 -4.96962e-017 -0 -9.26261 0 -2.84217e-014 -3.50933 -23.3317 -4.27799 0 -35.4897 1.42109e-014 -2.56704 59.0229 -3.20767 1.42109e-014 -38.2023 1.42109e-014 2.44435 8.23052 13.1408 0 -6.0207 13.8939 -7.95139e-016 9.54166e-015 -1.59028e-015 
